<?xml version="1.0" encoding="utf-8"?>
<!-- Generator: Adobe Illustrator 23.0.2, SVG Export Plug-In . SVG Version: 6.00 Build 0)  -->
<svg version="1.1" id="Layer_1" xmlns="http://www.w3.org/2000/svg" xmlns:xlink="http://www.w3.org/1999/xlink" x="0px" y="0px"
	 viewBox="0 0 1036 321" style="enable-background:new 0 0 1036 321;" xml:space="preserve">
<style type="text/css">
	.st0{display:none;fill:#FEFEFE;}
	.st1{fill:#CF2815;}
	.st2{fill:#DB5E51;}
	.st3{fill:#FE1232;}
	.st4{fill:#D8170D;}
	.st5{fill:#CD210D;}
	.st6{fill:#B71408;}
	.st7{fill:#B41409;}
	.st8{fill:#AC0102;}
	.st9{fill:#D11D0C;}
	.st10{fill:#BC1609;}
	.st11{fill:#D7190E;}
	.st12{fill:#D01D0C;}
	.st13{fill:#D51A0D;}
	.st14{fill:#C31109;}
	.st15{fill:#C4130A;}
	.st16{fill:#A90B05;}
	.st17{fill:#B80F07;}
	.st18{fill:#AF0202;}
	.st19{fill:#D9190E;}
	.st20{fill:#A30A04;}
	.st21{fill:#D0160C;}
	.st22{fill:#C4120A;}
	.st23{fill:#B20E07;}
	.st24{fill:#D61A0D;}
	.st25{fill:#D4170D;}
	.st26{fill:#BF1209;}
	.st27{fill:#B30604;}
	.st28{fill:#BC0C08;}
	.st29{fill:#CA160C;}
	.st30{fill:#CF1E0C;}
	.st31{fill:#BF130A;}
	.st32{fill:#CD130B;}
	.st33{fill:#D11D0D;}
	.st34{fill:#C9110A;}
	.st35{fill:#AF0C06;}
	.st36{fill:#BE0D07;}
	.st37{fill:#950201;}
	.st38{fill:#9A0301;}
	.st39{fill:#D41B0D;}
	.st40{fill:#C70E09;}
	.st41{fill:#A00603;}
	.st42{fill:#C01A0C;}
	.st43{fill:#D1301E;}
	.st44{fill:#B60906;}
	.st45{fill:#AA0E06;}
	.st46{fill:#B01207;}
	.st47{fill:#A70E06;}
	.st48{fill:#A50E06;}
	.st49{fill:#AC1007;}
	.st50{fill:#8D0300;}
	.st51{fill:#A70A04;}
	.st52{fill:#AA0E07;}
	.st53{fill:#A10D07;}
	.st54{fill:#B81209;}
	.st55{fill:#A10503;}
	.st56{fill:#B01006;}
	.st57{fill:#870300;}
	.st58{fill:#B21109;}
	.st59{fill:#9B0C06;}
	.st60{fill:#AD1008;}
	.st61{fill:#950A05;}
	.st62{fill:#910905;}
	.st63{fill:#BC0906;}
	.st64{fill:#C20C08;}
	.st65{fill:#B51208;}
	.st66{fill:#9C0503;}
	.st67{fill:#900200;}
	.st68{fill:#A30603;}
	.st69{fill:#940704;}
	.st70{fill:#A80603;}
	.st71{fill:#9C0401;}
	.st72{fill:#7E0202;}
	.st73{fill:#970501;}
	.st74{fill:#AE0504;}
	.st75{fill:#930200;}
	.st76{fill:#820200;}
	.st77{fill:#A80202;}
	.st78{fill:#AC0503;}
	.st79{fill:#BD1009;}
	.st80{fill:#AF0A05;}
	.st81{fill:#B50905;}
	.st82{fill:#BF0E08;}
	.st83{fill:#B00905;}
	.st84{fill:#9D0803;}
	.st85{fill:#B80E08;}
	.st86{fill:#980702;}
	.st87{fill:#A90F06;}
	.st88{fill:#AD1107;}
	.st89{fill:#920601;}
	.st90{fill:#A70C06;}
	.st91{fill:#AB0804;}
	.st92{fill:#B20C06;}
	.st93{fill:#A10A06;}
	.st94{fill:#A60704;}
	.st95{fill:#B20F08;}
	.st96{fill:#9B0905;}
</style>
<path class="st0" d="M1031,218c0,33.5,0,67,0.1,100.5c0,2.9-0.5,3.6-3.6,3.6c-338.9-0.1-677.9-0.1-1016.8,0c-3.2,0-3.8-0.8-3.8-3.9
	C7,213.7,7,109.2,6.9,4.8c0-4,1.5-3.8,4.4-3.8C349.8,1,688.4,1,1027,0.9c3.5,0,4.1,0.8,4.1,4.1c-0.1,67-0.1,134-0.1,201
	c-0.8,0.5-1.8,0.9-2.5,1.6c-4,3.9-4,3.9-7.6,0c-1.1,2.1-0.4,4.3-0.8,7.1c2-2.5,4.7-1.4,6.8-2.5c1.2-0.7,1.7,0.5,2.1,1.5
	C1029.4,215.2,1029.4,216.9,1031,218z"/>
<path class="st1" d="M1031,218c-4.7,0.8-2.3-3.2-3.4-5.2c-1.5,1-3,5.1-5,0.6c-1,0.6-1,1.6-1.1,2.6c-0.1,1-0.2,2.1-1.6,1.9
	c-1.4-0.3-1-1.5-1-2.4c0-2.5,0.1-5,0.2-7.5c0.1-1.1-0.2-2.5,1.5-2.7c1.7-0.3,2.3,0.8,2.7,2.2c0.3,1,0.9,2,1.4,3.1
	c2.6-1.1,1.3-7.4,6.4-4.5c0,0.7,0,1.3,0,2c-0.8,2-0.8,4,0,6C1031,215.3,1031,216.7,1031,218z"/>
<path class="st2" d="M1031,214c-1.5-2-1.6-4,0-6C1031,210,1031,212,1031,214z"/>
<path class="st3" d="M105.8,274.9c-1.1-2.4-0.7-4.9-0.7-7.4c0-27,0-54,0.2-80.9c0-2.7-1.6-3.9-3.1-5.3c-25-24.5-50-48.9-75-73.4
	c-17.4-17-19.2-43.7-4.3-63.1c0.6,0.6,0.8,1.3,0.8,2.1c-0.3,2.5-1.3,4.9-1.4,7.5c-1.6,6.1-0.6,12,1.4,17.8c1.2,3.3,2.8,6.4,4.7,9.3
	c1.2,2.4,3.2,4.1,5.1,6c1.1,1.1,2.2,2.2,3.3,3.3c2.3,2.2,4.9,4,7.5,5.8c2.5,1.8,5,3.6,7.9,4.9c2,1.1,3.8,2.4,5.9,3
	c1.7,0.6,3.5,1.2,5.3,1.7c2,0.7,4.1,1.4,6.2,1.8c3,0.8,5.9,1.7,9,1.8c17.4,3.1,34.5,1.9,51-4.7c3.5-0.5,6.3-2.5,9.4-3.9
	c2.3-0.9,4.3-2.4,6.4-3.8c2.4-1.6,4.9-3,7-5c1.8-1.2,2.8-3.9,5.6-3.4c8.1-7.7,16.2-15.3,24.2-23c11.2-10.8,22.3-21.8,33.7-32.6
	c14.7-13.9,36.1-17.7,52.4-9.5c-0.5,0.7-1.2,1.1-2,1.3c-3.7,0.6-7.3-1.7-11-0.3c-0.7,0.2-1.5,0.3-2.3,0.4c-2.9,0-5.8,0.7-8.6,1.5
	c-1.1,0.3-2.2,0.6-3.3,1.1c-3.2,1.4-6,3.3-8.5,5.7c-1.3,1.2-2.2,2.8-3.3,4.2c-1.4,1.6-2.2,3.5-3.2,5.3c-6.2,11.3-9.2,23.7-11.4,36.3
	c-0.9,4.2-1.3,8.5-1.9,12.7c-1,2.7-0.4,5.5-1,8.3c-1.2,4-0.1,8.2-1,12.2c-0.5,1.4-0.5,2.9-0.5,4.4c-0.3,18.7-2.1,37.5,0.1,56.2
	c0.3,3,0.2,6-0.3,8.9c-0.1,22.6-0.2,45.2-0.2,67.8c0,6.3,0,12.6,0,18.9c0,16.5-13.4,36.2-29.1,42.5c-0.3-0.4-0.4-0.8-0.4-1.3
	c0.7-2.3,3.1-3.2,4-5.4c1.6-2.2,3.2-4.4,3.8-7.1c1.5-3,2-6.1,1-9.4c-0.4-2.4-1.3-4.5-2.1-6.8c-1.1-11.5-8.5-19.6-15.7-27.6
	c-10.5-11.5-22.8-21.3-33.6-32.6c-1.6-1.7-3.4-3.2-4.7-5.2c-1.4-2.2-3.4-3.9-5.3-5.7c-6.6-6.5-13.1-13.1-20.6-20.5
	c0.1,10.8,0,20.5,0.1,30.2c0.2,3.5-0.1,7,0.1,10.4c0.2,6.8,0.2,13.7,0,20.5c0.3,5.3-0.1,10.6,0,15.9
	C107.4,269.6,108.2,272.6,105.8,274.9z"/>
<path class="st4" d="M780,259.1c0-16.2,0-32.3,0-48.5c0-2.5,0.2-4.1,3.2-5.1c19.4-6.2,39.1-8.3,59.1-4.9c22,3.7,34.7,17.9,35.4,40.9
	c0.7,22.5,0.2,45,0.4,67.5c0,2.5-1.1,2.9-3.2,3.3c-9.6,1.6-19.2,1.3-28.9,0.3c-3.8-0.4-4.3-2.1-4.3-5.5c0.2-17.7,0.1-35.3,0-53
	c0-3.3-0.2-6.7-0.8-9.9c-1.8-10.9-12.5-16.9-23-13.1c-2.8,1-1.9,3.2-1.9,5c-0.1,23.7-0.1,47.3,0.1,71c0,3.8-1.1,5.2-4.7,5.6
	c-9.2,0.9-18.3,1-27.4-0.1c-3.2-0.4-4.3-1.5-4.2-5C780.1,291.4,780,275.3,780,259.1z"/>
<path class="st5" d="M335.3,233.5c-5.6-17.6-17.6-28.6-35.5-33c-7.7-1.9-15.5-1.9-23.3-1.4c-21.2,1.4-37.7,14.1-44.2,34
	c-4,12.1-4.4,24.5-2.5,37c1.3,8.6,3.8,16.8,9.3,23.8c1.2-0.4,1.9-1.3,2.5-2.3c2.6-4,2.6-4,8.1-2.5c1.1,0.3,2.3,0.9,3.4,0.3
	c3.3-1.7,6.5-0.2,9.7,0c5.6,0.3,11.2,0.1,16.6,2.3c1.2,0.5,2.6-0.2,3.9-0.7c4.8-1.8,9.9-1.1,14.2,0.5c5,1.9,9.4,1.8,14-0.1
	c2.6-1,5.1-1.3,7.8-0.8c3.6,0.8,7.3,0.7,11,0.6c2.5-2.8,3.7-6.3,4.8-9.7C340.3,265.6,340.4,249.5,335.3,233.5z M268.3,239.1
	c2.5-6.7,7.8-10.1,15.1-10.1c7.2-0.1,12.5,3.2,15.5,9.7c2.7,5.9,3.4,12.1,3.2,18.2c0.2,6.5-0.5,12.6-3.1,18.3
	c-3.1,6.8-8.3,10-15.8,9.9c-7.4-0.1-12.5-3.7-14.9-10.4C263.9,263,264,250.9,268.3,239.1z"/>
<path class="st4" d="M751.8,240.1c-0.2-11-3.3-21.3-11.9-29.1c-2-1.4-4.1-1-6.2-0.6c-11.1,1.7-20.9,6.4-30.5,11.9
	c-1.8,1-4.8,2-4.1,4.3c0.2,0.6,0.6,0.9,1.1,1c0.4,0.1,0.8,0.1,1.3,0h0c1-0.1,2.2-0.3,3.1,0c0.1,0.1,0.3,0.1,0.5,0.2
	c5.1,1.2,10.1,2.6,12.7,7.8c1.5,2.9,1.6,4.8-2.8,4.6c-8.8-0.4-17.7-0.2-26.3,1.8c-14,3.1-26.2,9.3-29.9,24.5
	c-4.5,18.9,1.7,39.5,27.3,45.5c21.5,5,42.6,1.8,63.6-3.9c2.5-0.7,2.5-2.1,2.5-4C752,282.8,752.3,261.5,751.8,240.1z M718.9,275.1v2
	c0,10.5,0,10.5-10.5,10.7c-4.2,0.1-8.4-0.4-12.2-2c-4.3-1.8-7-4.9-7.2-9.8c-0.2-4.9,2.1-8.2,6.3-10.4c7-3.7,14.6-2.3,22-2.5
	c1.7,0,1.6,1.4,1.6,2.5C718.9,268.8,718.9,271.9,718.9,275.1z"/>
<path class="st5" d="M367,293.1c-4.5-7-5.7-14.9-5.8-22.9c-0.3-21.8-0.1-43.7-0.3-65.5c0-2.7,0.9-3.6,3.5-4.1
	c9.6-1.6,19.2-1.5,28.8-0.1c3.2,0.4,3.9,1.7,3.9,4.8c-0.1,18.2-0.1,36.3,0,54.5c0,3.3,0.3,6.7,0.8,9.9c1.7,10.5,13.4,17,23.3,13
	c2.5-1,1.6-3,1.6-4.7c0.1-23.7,0.2-47.3-0.1-71c-0.1-5.1,1.8-6.6,6.2-7c9-0.8,17.9-1,26.9,0.6c2.4,0.4,3.3,1.2,3.3,3.8
	c-0.1,33.3,0,66.6-0.1,100c0,0.9,0.4,2.1-0.9,2.5c-2.3-2.9-1.3-6.3-1.4-9.5c0-2.2,0-4.4,0-6.6c-0.3-5.9-0.7-6.1-6.4-4.8
	c-3.5,0.8-7.1,0.1-10.8,0.7c-6.3,1.1-12.8,2.3-19,2.2c-6.5-0.2-12.7,1.8-19.1,0.7c-0.3-0.1-0.7-0.2-1-0.1
	c-8.6,3.9-17.6,0.1-26.3,1.4C371.5,291.3,369.6,293.2,367,293.1z"/>
<path class="st4" d="M946.8,201.2c15,0,30,0.1,45-0.1c3.9-0.1,5.2,1.2,5.6,4.9c0.8,7.3,0.9,14.6-0.2,21.9c-0.4,3-1.6,3.8-4.5,3.8
	c-7.8-0.2-15.7,0.1-23.5-0.1c-3.5-0.1-4.5,0.9-4.4,4.4c0.2,23.7,0,47.3,0.2,71c0,3.6-0.7,5.2-4.7,5.6c-9,1-17.9,1-26.9,0.1
	c-4.1-0.4-4.9-2.1-4.9-6c0.2-23.2,0-46.3,0.2-69.5c0-4.2-0.8-5.9-5.4-5.6c-7.6,0.4-15.3,0-23,0.2c-2.8,0.1-3.9-1-4.2-3.6
	c-1.2-7.6-1.3-15.2-0.1-22.9c0.5-3,1.6-4.1,4.8-4.1C916.2,201.3,931.5,201.2,946.8,201.2z"/>
<path class="st5" d="M502,278.1c-6-19.3-12-38.6-18-58c-1.6-5.2-3.2-10.5-4.8-15.7c-0.7-2.1-0.6-3.3,2.2-3.5
	c10.8-0.9,21.6-1.3,32.4-0.1c2.9,0.3,3.8,1.5,4.4,4.2c3.9,18.9,7.9,37.7,11.9,56.6c0.2,1,0.2,2,1.6,3.1c2.8-12,5.6-23.8,8.4-35.5
	c2-8.2,4-16.5,5.8-24.7c0.5-2.4,1.4-3.4,3.8-3.7c9.6-1.3,19.2-1.3,28.8,0.2c2.1,0.3,2.7,1.4,3.1,3.2c3.8,16.3,7.6,32.7,11.4,49
	c-7.4,5.9-16.6,6.8-25.3,9c-1,0.2-1.9-0.3-2.7-1c-0.8-2.5-1.6-4.9-2.5-7.7c-2.6,3.6-2.1,8.2-4.3,11.8c-3.7-1.7-7.2-0.1-10.4,1.4
	c-6.4,3-13.2,3.5-20,4.8C519.1,273.2,510.1,274.1,502,278.1z"/>
<path class="st4" d="M628.9,257c-5.3,17.3-10.7,34.6-16,51.9c-0.6,2-1.5,3-3.7,3.3c-9.8,1.4-19.6,1.3-29.3-0.2
	c-1.6-0.2-2.4-1-2.7-2.4c-2.8-11.1-5.5-22.2-8.3-33.4c-0.4-2.9,1.9-3.1,3.7-3.6c16.9-4.8,33.6-10.1,50.2-15.5
	C624.8,256.5,626.9,255.4,628.9,257z"/>
<path class="st5" d="M599.1,251c3.2-15.6,6.4-31.2,9.5-46.9c0.4-2.2,1.3-3,3.5-3.2c10.5-1.2,20.9-1,31.4,0c2.7,0.3,3,1.3,2.3,3.5
	c-3.9,12-7.8,24-11.7,36c-5.4,0.1-10,2.6-14.9,4.3C612.6,246.9,606.1,249.7,599.1,251z"/>
<path class="st4" d="M554.1,280.2c-2.5,9.8-5.1,19.6-7.6,29.4c-0.4,1.7-1.4,2.3-3.1,2.6c-9.3,1.5-18.5,1.4-27.8,0.3
	c-2.6-0.3-4.1-1.3-4.7-4.1c-1.4-5.8-3.2-11.5-4.9-17.2c-0.9-4.4,2.8-3.9,5-4.4c11.6-2.4,23.1-4.9,34.7-7.3c1.8-0.4,3.5-1,5.4-1.2
	C552.3,278.2,554.1,277.7,554.1,280.2z"/>
<path class="st4" d="M458,297c0,3.3,0,6.6,0,9.9c-24.9,8.1-50,11.2-75.3,1.8c-2.1-0.8-4.2-1.8-5.7-3.6c-0.7-3.8,2.3-3.4,4.3-3.5
	c4.8-0.4,9.6-0.4,14.4-0.7c18.9-1.4,37.8-2.9,56.6-5.2C454.4,295.4,456.4,295.5,458,297z"/>
<path class="st6" d="M105.8,274.9c0.1-2.6,0.2-5.3,0.2-7.9c0.8-0.7,0.9-1.7,1-2.7c0.5-3.6,2.6-3.9,5.2-2.4c1.5,0.9,2.8,2.2,4.8,2.1
	c5.3,2.7,10.7,5.2,14.1,10.4c1.6,2.4,4.1,3.9,6.2,5.7c10.1,9.2,18.3,20.2,27.8,30c3.4,3.5,3.1,3.8,6.3,5c-4.6,2.2-9.5,2.3-14.4,1.8
	c-6.4-0.1-8.4-6.1-11.5-9.7c-4.8-5.5-10-10.6-15.2-15.7c-3.4-3.4-6.8-6.8-9.9-10.4c-2-2.3-4.2-3.9-7.2-3.6c-2.9,0.3-5.2-0.7-7.3-2.5
	L105.8,274.9z"/>
<path class="st7" d="M171.4,315.2c-2.8-0.1-4.4-0.9-6.7-3.4c-10.6-11.2-19.7-23.7-31.6-33.7c-4.3-3.6-8-8-12.7-11.3
	c-1.1-0.7-1.9-1.9-3.4-1.8c-0.3-3.2-0.3-3.2,4.7-2.3c-1.4-3.2-6.1-5.1-4.1-9.6c1.6-1.2,2.8-0.1,4,0.7c15.8,9.8,27.2,24.3,40,37.2
	c6.3,6.3,11.3,13.3,15,21.4c0.1,0.2,0.2,0.4,0.4,0.6C175.5,314.7,173,313.8,171.4,315.2z"/>
<path class="st8" d="M210.2,182c-0.8-0.4-1.1-1.2-1.2-2c-1.8-22.1-0.7-44.2,0.1-66.3c0-0.6,0.5-1.2,0.8-1.8c2.4,2.7,1.2,6,1.5,9.1
	c-0.3,4.3-0.1,8.6-0.2,12.9c-0.1,3.5,1.2,3.2,3.9,2c3.1-1.5,3.8-5.6,7.5-6.1c2.3,1.9,2.7,5,4.6,7.2c-0.2,3.1-2.1,5.6-3.2,8.3
	c-1.7,4.2-1.3,5.4,2.8,7.3c2,0.9,4.1,1.1,6.3,0.9c1.1-0.1,2.8-0.7,2.7,1.6c-1,1-1.9,1.9-2.9,2.9c-5.9,7.1-13.3,12.8-19.1,20
	C212.8,179.3,211.5,180.6,210.2,182z"/>
<path class="st9" d="M239,293.9c-0.1-2.7,4.1-3.8,2.6-7c2.3,1.3,4.7-1.7,7,0.2c2.2,1.9,4.5,2.1,6.7,0c2.2-2.2,3.7,0.4,5.3,0.9
	c4.8,1.5,9.9-1.6,14.5,1c3.5,1.9,6.6,0.4,10,0c4.4-0.6,9.8-1.2,14,1.7c4,2.7,7.9,1.1,11.4-0.3c6.8-2.7,13.1-0.4,19.6,0.8
	c-1.3,3.2-3.4,5.8-6,8c-13.5,0.3-26.9-0.7-40.3-1.2c-7.4-0.3-14.9-0.5-22.4-1.3c-8.5-0.9-9.4,0-12.5,7.5
	C244.7,301.7,241.5,298.2,239,293.9z"/>
<path class="st10" d="M105.9,275.1c3.1,0.4,6.1,1.3,9.4,1.3c5.2,0.1,6.7,5.4,9.8,8.4c6,5.6,12.2,11.1,17.3,17.4
	c3.5,4.3,8.9,7.2,10.5,13.1c0.5,1.7,3.2-0.1,4.1,1.7c-8.8,0.4-17.2-1.2-25-5.3c-5.1-6.6-12.3-11.3-16.8-18.5c-1-1.6-3.3-1.6-4.3-3.3
	C108.1,285.4,106.3,280.5,105.9,275.1z"/>
<path class="st9" d="M367,293.1c5.1-5,11.5-4.2,17.6-3.5c3.4,0.4,6.3,1.8,9.8-0.3c4.3-2.5,9.4,0.2,14.1-1.2c3.5-1,6.9-1,10.6-0.2
	c3.1,0.7,6.8-0.9,10.1-1.4c4.4-0.6,9-0.3,13.4-1.8c3.3-1.1,6.7,0.3,10.4-1.2c3.2-1.3,5.6,2.4,4.9,6.4c-1.7,1.8-4,2.2-6.3,2.5
	c-20,2.2-39.9,4.1-60,5.3c-7.3,0.4-14.4,1.6-21.7,0.3C368.6,296.6,367.4,295,367,293.1z"/>
<path class="st5" d="M667.9,224.2c-2.9-5.1-2.9-10.8-3.1-16.4c0-1.2,0.1-2.3,1.6-2.7c16.2-4.8,32.6-8.2,49.6-5
	c0.9,3.7-2.2,4.1-4.3,4.5c-5.2,0.9-9.3,3.5-13.7,6.3c-4.3,2.8-9.9,3.9-14.2,6.8C678.8,221,673.2,222,667.9,224.2z"/>
<path class="st11" d="M317.9,304.7c-14.7,10.3-30.9,11.5-47.9,8.3c-2.4-1.4-5.2-2.3-7.4-4c-2.1-1.5-4.1-3.2-3.3-6.1
	c0.8-3.1,3.5-3.8,6.3-4c3-0.2,6,0.2,8.9,0.7c12.3,2.2,24.8,0.7,37.1,1.9C314.1,301.8,317.2,301,317.9,304.7z"/>
<path class="st12" d="M667.9,224.2c3.2-2.3,6.2-4.8,10.5-4.6c2.2,0.1,2.9-2.3,4.7-3.2c6.8-3.2,13.6-6.2,20-10.3
	c2.4-1.5,4.8-3.1,8.2-2.6c1.6,0.3,4.3-0.8,4.8-3.5c5.4,0.4,10.5,1.8,15.1,4.7c0.5,2.5-1.5,2.9-2.9,3.1
	c-14.2,2.6-25.9,10.6-38.5,16.8c-3.8,1.9-8,3.1-11.6,5.4C670.8,233,670.7,233,667.9,224.2z"/>
<path class="st13" d="M370,298c0.7-0.3,1.5-1.1,2.1-1c7.1,1.1,14-0.6,20.9-1c15.5-0.8,30.9-2.2,46.3-3.9c6.2-0.7,12.4-1.3,18.6-2.2
	c0,2.3,0,4.7,0,7c-12.3,0.6-24.5,2.4-36.8,3.8c-5.6,0.6-11.2,0.5-16.8,1c-7.9,0.7-15.8,1.9-23.7,1.2c-1.6-0.1-3.5-0.3-3.8,2.1
	C374.1,303.3,371.7,301,370,298z"/>
<path class="st13" d="M317.9,304.7c-0.6-0.5-1.3-1.5-1.9-1.5c-8.2,0.8-16.4-2.5-24.6-0.5c-3.9,1-7.6-0.3-11.2-1
	c-4.4-0.8-8.9-0.3-13.2-1.5c-2.5-0.7-5.6-0.1-6.7,2.8c-1.2,3,1.9,3.8,3.6,5.1c2,1.7,4.7,2.4,6.2,4.8c-7.9-0.9-14.9-3.8-21.1-8.9
	c-0.9-7.6,0.5-9.5,8.8-9.1c18.1,0.8,36.2,1.8,54.3,3c4,0.3,8.2-1.4,12,1.2C322.5,301.6,320.4,303.3,317.9,304.7z"/>
<path class="st14" d="M299.9,70c0.5,8.2-0.6,16-4.8,23.3c-6.2-0.1-8.6-4.3-10-9.5c-2.2-6.2-4.1-12.4-4.3-19
	c-0.3-5.5,0-10.9-0.4-16.4c3-2.1,4.7,0.2,5.1,2.3c0.7,4,3.1,5.6,6.4,6.6c3.3,1,4.3,2.9,3.4,6.4C294,68.8,294.7,69.4,299.9,70z"/>
<path class="st9" d="M502,278.1c0.2-2.1,1.9-2.5,3.5-3c6.7-2.3,13.8-3.6,20.5-5c5.7-1.2,12-1.5,17.9-3c3.4-0.9,6.1-3.1,9.8-3.6
	c2.6-0.4,3.3,0.4,4.4,1.9c-0.1,2.4-0.8,4.7-1.8,6.9c-6.2,3.5-13.2,4.2-19.9,5.7c-10.8,2.5-21.6,4.9-32.5,6.5
	C502.7,282.4,502.1,280.3,502,278.1z"/>
<path class="st15" d="M299.9,70c-2,0.2-4.2,2.8-5.8,0.6c-1.1-1.5-1.7-4.9-0.8-6.2c4.2-5.7-1.5-6.3-3.9-6.8c-3.8-0.8-4.7-2.4-4.6-5.9
	c0.1-2.2-1.6-3.5-3.9-3.7c-2.2-4.6-4.1-9.4-5.8-14.2c-0.7-2.2-1.1-4.6,0.8-6.6C291.3,34.4,300.8,51.3,299.9,70z"/>
<path class="st16" d="M130,63c1.7,1,3.1,2.3,4.2,3.9c-0.5,3.1-3,3.9-5.5,4.1c-16,1.4-31.4,6.6-47.4,8.5c-4.4,0.5-8.4,3.4-13.1,2.8
	c-2.2-0.1-4.4-0.5-5.5,2.1c-0.9,0.4-1.8,0.4-2.7,0.1c-2.1-1-6-0.5-4.3-4.9c5.2-4.2,11.4-5.4,17.8-6.3c4.4-0.7,8.7-1.4,12.9-3.2
	c5.5-2.4,11.3-3,17.3-2.9c4.6,0.1,8.7-2.8,13.5-2.5C121.5,64.9,125.6,62.8,130,63z"/>
<path class="st17" d="M117.1,51c2,1.3,3.8,3,5.2,4.9c-0.7,1.1-1.8,1.6-2.9,1.8c-12,2.2-23.6,6.6-36.1,6.9
	c-5.8,0.2-11.1,3.2-16.8,4.3c-2.4,0.5-4.8,1.2-7.4,0.9c-4.3-0.8-9,1.8-13.1-1.2c-0.9-0.7-1.3-1.6-1.4-2.7c0.5-1.9,2-2.7,3.7-2.6
	c4.5,0.2,8.7-2.1,13.2-1.2c2,0.4,3-1.1,4.4-1.7c12.2-2.8,24.6-4.4,36.7-7.8C107,51.2,112.1,49.6,117.1,51z"/>
<path class="st18" d="M236,155.1c-3.9-0.6-7.9,0.4-11.5-2.2c-2.8-2-4.5-3.6-2-7.1c1.9-2.6,2.2-6.2,4.5-8.7c4.1-1.5,8.5-2.5,11-6.5
	c1.2-0.6,2.4-0.6,3.7-0.1c0.1,0.1,0.4,0.2,0.4,0.3c0.9,4.4,2.4,8.4,6.3,11.1c0.3,0.2-0.1,0.9-0.3,1.4
	C244.3,147.4,240.8,151.8,236,155.1z"/>
<path class="st19" d="M49,22c15.2-5.9,29.4-4.2,42.4,5.8c-3.3,3.6-7.5,5.2-12.3,5.5c-8.3,0.5-16-2.1-23.9-4.3
	C51.7,28.1,49.8,25.5,49,22z"/>
<path class="st20" d="M67,81c4.9,0.9,9-1.7,13.4-2.9c7-1.9,14.3-2.1,21.5-3.2c6.5-1,12.3-4.5,19.1-4.5c2,0,3.9-1.2,6.2-0.6
	c2.7,0.7,5-1,7-2.9c1.3,0.7,2.4,1.6,3.2,2.9c-1.3,5.4-2.2,6.2-7.3,5.4c-3-0.5-5.5,1-8.1,1.7c-11.7,1.6-23.1,4.4-34.7,6.2
	c-5.8,0.9-11,4.9-17.2,4.6c-2.2-1.1-4.3-1.4-6.7-0.4c-1.9,0.8-4.1,1.8-5.7-0.8c-0.1-1.7,0.9-2.3,2.4-2.4c1,0,2,0,3,0
	C63.6,82,65.7,82.1,67,81z"/>
<path class="st13" d="M678.1,230.1c-0.1-2.3,2.1-2,3.2-2.7c11.6-6.2,23.7-11.6,35.2-18.1c2.8-1.6,6.6-1.6,9.9-2.2
	c1.8-0.3,3.6-0.6,4.7-2.4c3.2,1.8,6.7,3.1,8.8,6.3c-12.9,0.6-24.3,5.7-35.3,11.9c-1.7,0.9-3.3,2-5.4,3.3c1.9,1.6,4.3,0,5.7,1.7
	C695.9,227,687,228.3,678.1,230.1z"/>
<path class="st21" d="M35.9,29c1.3-1.5,2.9-2.6,4.9-3.1c2.1-1,3.1,0.4,4,1.9c1.7,2.7,4.4,4.2,7.3,4.8c13.2,2.7,26.5,4.2,39.6-0.3
	c1.4-0.5,2.7-1.4,4.2-0.3c2.6,1.7,5.2,3.4,7.1,6c-11.1,4.1-22.9,4.4-34.5,5.4c-7.1-0.7-14.2-1.6-21.1-3.6C42,38.2,37.9,34.5,35.9,29
	z"/>
<path class="st22" d="M104.8,40c1.3,2.3,4.5,2.2,5.5,4.8c-0.6,2.4-2.4,3.5-4.5,4.2c-10,3.1-20.2,5.2-30.6,6
	c-4.1,0.3-7.7,3.4-12.1,1.9c-4.1-1.9-8,1.2-12.1,0.6c-1.9-1.6-5.6-0.9-6-4.6c0-0.9,0.2-1.6,0.7-2.3c2.5-2.2,5.5-2.1,8.5-1.8
	c4.2,0.4,8.3,0,12.4-0.9c9.8-0.4,19.3-3,29-4.5C99,42.9,101.3,39.9,104.8,40z"/>
<path class="st23" d="M59,69c6.4-1.3,12.9-2.5,19-4.9c5.8-2.3,12.1-1.1,18.1-2.4c8.8-1.8,17.2-5.2,26.2-5.8c2.1,1.4,4.1,3.1,5.6,5.1
	c-9.3,2.2-18.7,3.9-28,5.8c-7.5,1.6-15,3.9-22.8,4c-2.1,0-4.2,1-6.1,2c-4.5,2.1-9,1.9-13.3-0.6C57.1,70.7,57.5,69.6,59,69z"/>
<path class="st13" d="M628.9,257c-11.7,3.5-23.4,7.1-35.1,10.6c-7.1,2.1-14.2,4.3-21.4,6.3c-1.6,0.4-2.8,0.7-3.5,2.3
	c-1-2.3-2.1-4.6-1.9-7.2c0.9-1.3,2.2-2,3.6-2.4c6.7-1.9,13.3-3.9,20-5.8c1.4-0.4,2.9-0.9,4.2,0.2c0.1,0.6,0.2,1.1,0.3,1.7
	c1.6,2.1,1.2-0.6,1.9-0.8l0,0c2.7-2.1,6.2-2.4,9.3-3.6c5.6-2.1,11.4-3.7,16.7-6.5c2.2-1.2,5.5-2.9,7.2,1.3
	C629.7,254.5,629.3,255.7,628.9,257z"/>
<path class="st24" d="M503.8,284.3c5.4-3.7,11.9-3.2,17.9-4.6c11.5-2.7,23.1-5.1,34.6-7.6c-1.4,2.5-0.5,5.6-2.2,8.1
	c-4.1-2.1-7.9,0.7-11.6,1.4c-10.6,2.2-21.3,4.5-31.9,6.6c-1.8,0.3-4.2,0.3-4.5,3C504.7,289,504.1,286.7,503.8,284.3z"/>
<path class="st25" d="M95.9,32c-11.1,5.2-23,5.3-34.6,3.6c-4.8-0.7-10-0.8-14.7-3.6c-2.7-1.7-2.1-5.9-5.8-6.1C43.2,24,46.1,23,49,22
	c3.1,1,2.6,5.4,6.6,6c6.1,0.9,12,2.8,18,4c6.5,1.3,12.2-1.6,17.8-4.1C93.3,28.8,95.1,29.9,95.9,32z"/>
<path class="st26" d="M63,56c5.4,0.6,10.1-2.6,15.5-2.9c8.5-0.5,16.8-2.4,25-4.9c2.7-0.8,4.6-2.3,6.9-3.4c2.6,1.7,4.8,3.7,6.7,6.2
	c-7,2.5-14.4,2.7-21.5,4.8c-4.2,1.3-8.8,3.3-13.7,2.3c-1.2-0.2-2.8,0.1-3.8,0.8c-3.7,2.9-8,2-12.1,2.1c-2,1.2-3.9,1.4-5.1-0.9
	C59.8,58.1,61,56.7,63,56z"/>
<path class="st27" d="M248.1,143.1c-0.1-0.3-0.1-0.8-0.3-0.9c-4.5-2.4-7.7-5.5-5.8-11.2c-1.4-2.7,0.7-4.1,2.3-5.2
	c2.6-1.6,4.9-3.2,6.1-6.2c0.7-1.8,2.7-1.7,4.3-1.8c5.8-0.6,6.9,3.9,8.4,7.9c0.2,2.8-2.6,3.6-3.8,5.4c-1.6,1.5-3.3,3-4.3,5
	C253.1,138.7,250.8,141.1,248.1,143.1z"/>
<path class="st28" d="M259,131c1.3-1.7,2.7-3.3,4-5c0.2-1.6,1.3-2.8,2.5-3.6c4.9-3.5,5.6-8,4-13.5c-0.8-2.8-0.9-5.9,1.4-8.4
	c2.5-2.8,0.4-6.2,1.4-9.3c0.7-2,0.4-4.2,2.5-5.6c2.8-0.6,3.5,1.3,3.8,3.4c0.2,1.2-0.4,2.7,1.3,3.4c1.1,0.5,2.6,1,2.5,2.2
	c-0.2,3.8,2.3,6.8,2.6,10.4c-8,9.7-17,18.3-26,27c-0.3-0.2-0.5-0.4-0.4-0.7C258.8,131.1,258.9,131,259,131z"/>
<path class="st29" d="M104.8,40c-3.8,3.4-8.3,4.6-13.3,5.4C83.4,46.8,75.4,49.1,67,49c-2.4-0.4-5.4,0.5-6.4-2.9
	c1.1-3.8,4.9-2.9,7.4-4.1c8.1-0.7,16.3-1,24.4-2.2c3.5-0.5,6.6-3.7,10.6-1.8C103.9,38.4,104.8,38.8,104.8,40z"/>
<path class="st30" d="M599.1,251c3.3-2.6,7.5-3.1,11.3-4.7c6.5-2.7,13.7-3.9,19.9-7.5c2-1.1,3.1-0.4,3.9,1.4
	c-0.3,2.4-0.9,4.7-2.1,6.8c-9.4,3.5-18.7,7.4-28.4,9.9c-1.9,0.5-3.7,1.6-5.6,0C597.8,254.9,598.4,252.9,599.1,251z"/>
<path class="st31" d="M276,27.2c-0.7,4.8,1.3,9.1,3.3,13.2c1.2,2.5,2,4.9,1.7,7.6c2,5.6,0.8,11.3,1,17c-1.6,1.2-3.1,0.9-3.5-0.9
	c-1.2-6.4-4.6-12-6.4-18.2c-1-7.6-3.1-14.8-6.1-21.8c0.8-0.1,1.6-0.1,2.4-0.2C271.1,24.5,273.6,25.7,276,27.2z"/>
<path class="st32" d="M68,42c-2.3,1.3-4.7,2.7-7,4c-5.6,4.1-11.2,0.9-16.6-0.3C37.9,44.3,34.3,38.6,30,34c1.3-2.4,3.3-4,5.8-5.1
	c3,0.7,3.1,3.9,5,5.6c3.9,3.6,8.6,4.6,13.5,5.4C58.9,40.8,63.5,41.3,68,42z"/>
<path class="st33" d="M594.8,261c-9.3,2.7-18.6,5.3-27.8,8c-1.2-2.5-1.9-5.2-2.1-8c4.6,0,8.8-2.2,13.2-2.9c5.3-0.9,9.7-3.8,14.8-5.1
	C593.5,255.7,594.2,258.3,594.8,261z"/>
<path class="st34" d="M30,34c1.7,0,2.8,1.1,3.7,2.2C40.8,45.1,50.2,47.6,61,46c1.3,2.3,4.4,1.3,6,3c-4,1.1-8.1,2-12.3,1.1
	c-2.9-0.6-5.8,0-8.7,0.9c-6.1,1-10.4-2.5-14.8-5.8c-2-1.5-4-2.8-6.4-3.3C26.1,39,27.8,36.3,30,34z"/>
<path class="st35" d="M70,72c2.8-1.8,6-3.1,9.3-2.9c8.1,0.3,15.7-2.3,23.4-4.1c7.2-1.7,14.5-3.2,21.8-4.6c1-0.2,2.2,0.4,3.4,0.6
	c1,0.4,1.7,1,2.1,2c-5.4,3.1-11.3,2.9-17.2,3.1c-1.6,0.1-2.8,0.9-4.1,1.6c-1.5,0.7-2.9,1.6-4.7,1.2c-5.2-1.2-10.2,0-15,1.8
	c-4.4,1.7-9,2.5-13.4,4.2C75.3,75,74.6,74.3,74,74C72.7,73.3,71,73.4,70,72z"/>
<path class="st36" d="M285,105.1c-2.1-2.7-4.1-5.5-3.4-9.1c0.4-2.2-1.5-2.1-2.6-2.9c-0.4-7,1.1-9.1,7-9c1.4,4.7,4.9,7.3,9.1,9.3
	C293.3,98.5,289.3,101.9,285,105.1z"/>
<path class="st37" d="M158.2,88.9c-1.7,1.4-3.4,2.8-5.1,4.2c-9.4,2-18.3-0.4-27.2-3c-0.9-0.3-1.6-1.1-1.9-2.2
	c1.7-3.2,4.6-3.7,7.8-3.6c5.1,0.8,10.3,0.4,15.3,1.8c2.5,0.7,3.2-3.6,5.9-2.1C155,85.3,156.7,86.9,158.2,88.9z"/>
<path class="st38" d="M152.9,84c-3.7,4.5-8.2,4.1-12.8,1.7c-1.5-0.8-2.6,0-3.7,0.6c-2,1-3.5,0.8-4.5-1.3c-1.1-0.9-2.4-0.6-3.6-0.4
	c-2.2,0.3-3.8-0.5-3.8-3c2.7-3.8,6.7-2.3,10.2-2.6c3.2-0.4,6-2.1,9.1-3C146.4,79.2,150.8,80.4,152.9,84z"/>
<path class="st39" d="M598,257c9.8-1.8,18.9-5.8,28.2-9c1.9-0.6,3.6-2.6,5.8-0.9c-0.1,2.2-0.8,4.3-1.9,6.1c-3.1-2.5-5.7-0.7-8.5,0.7
	c-7.8,3.8-16,6.7-24.6,8.1C596.9,260.2,597,258.5,598,257z"/>
<path class="st40" d="M24.8,41.9c1.4-0.2,2.5-2.5,4.2-0.4c4.4,5.4,10.6,7.6,17,9.5c0,0.7,0,1.3,0,2c-8.1,2.7-18.9-0.1-23.1-6
	c0-0.7,0-1.5,0-2.2C23.2,43.6,23.8,42.6,24.8,41.9z"/>
<path class="st41" d="M143.8,76c-1.9,3.6-5.5,3.6-8.8,4c-2.5-0.2-4.9-1.1-7.5-0.8c-2.2,0.2-4.5-0.7-5.5-3.2c3-1.9,5.9-3.3,9.6-1.7
	c4.3,1.8,3.6-3.3,5.8-4.5C139.8,71.6,142.3,73.3,143.8,76z"/>
<path class="st42" d="M111,290c3,0.1,4.8,1.3,6.4,4.1c2.6,4.6,7.2,7.6,10.8,11.4c1.7,1.8,3.5,3.5,3.9,6.2
	C122.3,307.1,115.2,299.9,111,290z"/>
<path class="st43" d="M1012.9,205.2c1,0.2,2.9-0.7,3.7,0.7c1.3,2.4-2,1.6-2.3,2.6c-0.5,1.9-0.3,3.9-0.5,5.8
	c-0.2,1.3,0.9,3.5-1.4,3.6c-2.8,0.1-1.3-2.4-1.7-3.7c-0.7-2.3,1.8-5.6-2.7-6.6c-1.1-0.2-0.5-2.1,0.9-2.3
	C1010.1,205,1011.3,205.2,1012.9,205.2z"/>
<path class="st18" d="M214,178c0.4-3.2,3.2-4.6,5.1-6.5c4.6-4.6,8.8-9.6,14-13.5C227.6,165.4,220.7,171.6,214,178z"/>
<path class="st44" d="M259,131c0,0.3,0.1,0.7,0.1,1c-1,1.6-2.3,3-4,4C255.2,133.4,257.2,132.3,259,131z"/>
<path class="st39" d="M597,261.9c-0.1,1.2,0.5,3-1.3,3.1c-1.1,0.1-0.5-1.5-0.6-2.4C595.7,262.4,596.3,262.2,597,261.9z"/>
<path class="st7" d="M180.8,310c0,0.4,0.1,0.8,0.1,1.2c-1.1,0.9-2.4,1.6-3.9,1.7c0,0-0.1-0.1-0.1-0.1
	C177,310.4,178.6,309.7,180.8,310z"/>
<path class="st45" d="M106.1,230c0-3.7,0-7.3,0-11c2.2-1.7-0.8-6.5,4.3-6.5c5.2,0,9.6,0.6,11.5,6.2c6.4,3,9.1,9.8,13.9,14.4
	c2.8,2.7,6.1,5.1,8.4,8.3c1.8,2.5,4.3,4.6,4.3,8.1c-1.4,2.2-0.2,3.8,1.5,5c4.9,3.3,8.2,8.7,14,10.9c1.4,0.5,2.1,1.9,2.6,3.4
	c3,8.1,10.3,12.5,16.2,18.1c0.4,0.4,1.3,0.3,1.9,0.3c1.7,0.4,3.5,1,5.3,0.5c1.7,3.6,1.4,7-1,10.1c-5.3,0.8-11.3-2.4-13.9-7.1
	c-5.8-10.4-13.4-19.2-22.5-26.7c-3.7-3-8.6-4.3-12.3-7.4c-1.3-1.1-1.9-2.7-2.4-4.2c-1.8-5.2-5.1-8.7-10.6-9.9c-3-0.6-4.2-3.6-6.6-5
	c-2.3-1.9-4.3-4.1-6.3-6.2C112.2,229.1,109.1,228.8,106.1,230z"/>
<path class="st46" d="M180.8,310c-1.4,0.8-3.1,1.2-3.8,2.9c-1.4,0-3,0.4-3.4-1.9c-0.8-5.1-3.6-9.2-7-13.1
	c-7.1-8.1-15-15.4-22.1-23.5c-3.8-4.3-8.6-7.7-12-12.5c-0.1-0.1-0.2-0.3-0.4-0.3c-5.8-1-9.3-5.9-14-8.6c-1.2,0.5-1.8-0.2-2.3-1.1
	c1-6.6,3.8-7.9,9.1-3.9c0.9,0.7,1.7,0.9,2.7,0.9c3.9,0.6,6,3.2,7.4,6.5c1.3,3.3,1.9,7.3,7.1,5.1c0.7-0.3,1.5,0.4,2.2,0.9
	c8,9.8,16.1,19.4,26.5,26.7c2.2,1.6,3.5,4,3.2,6.9c-0.1,1.4,0.1,3.3,1.4,3.4c4.7,0.3,7,3.8,9.9,6.5
	C184.8,307.7,182.3,308.4,180.8,310z"/>
<path class="st47" d="M190.1,287.9c-1.6,3.9-3.4,0.8-5.1,0.1c-2.2-1.6-5.3-2.1-6.7-4.9c-0.7-1.3-2.2-2.5-1.2-4
	c1.1-1.7,2.8-0.9,3.9-0.5c-9.4-7.5-17.3-16.8-25.7-26.2c-0.8,1-0.8,3.9-3.1,3c-2.3-0.9-4.5-2.2-4.2-5.3c-1.2-3.5-3.1-6.7-5.9-8.9
	c-4.2-3.3-6.8-8.3-11.5-11c-2.1-1.2-1.3-3.7-3.1-5.3c-2.1-1.8-4.1-3.5-6.5-4.8c-1-6,2.4-10.4,8-10c2,1.3,3.8,2.8,4.9,5.1
	c1.2,3.5,3.6,6.3,5.8,9.1c13.5,17.3,26.5,35.2,43.5,49.5c2.4,2,3.7,4.6,4.9,7.4C189.2,283.1,190.4,285.3,190.1,287.9z"/>
<path class="st48" d="M188,281c-10.5-11.4-22.2-21.7-32.1-33.7c-4.3-5.2-8.1-10.6-12-16.1c-3.2-4.6-7.3-8.5-9.8-13.5
	c-0.4-0.9-1.3-1.6-0.2-2.5c12.1,13.4,26.2,24.9,38.6,37.9c5.4,5.7,10.1,11.8,13.5,18.9C187.3,274.8,188.4,277.7,188,281z"/>
<path class="st49" d="M185.1,305c-1.4,0.2-4,4.1-3.5-1.4c0.2-1.9-2.2-3.4-4.7-3c-3.7,0.6-5.1-2.3-4.5-4.6c1-3.8-0.9-5.7-3.4-7.4
	c-9.6-6.8-17.2-15.5-24.5-24.6c-0.4-0.5-0.4-1.2-0.6-1.9c-1.2-1.9-4.6-2.7-3-6c12.4,5.8,21.8,14.8,29.7,25.9
	c2.2,3.1,4.2,6.2,6.1,9.5c2.6,4.5,7.7,5.2,12.2,6.7C189,301,187.2,303.1,185.1,305z"/>
<path class="st50" d="M69.1,108.9c-2-0.6-4-1.3-6.1-1.9c-0.1-0.7,0.1-1.5,0.8-1.6c6.6-0.1,11.1-4.7,16.5-7.5
	c6.1-1,11.9-2.5,17.8-4.4c5.3-1.8,11.1-1.4,16.7-2.2c9.5,1.7,19.4,1.5,28.4,5.7c-0.1,4.3-3.4,3.9-6,3.8c-7.8-0.4-15.5-1-23.3-0.9
	c-8.9,0.1-17,2.9-25.2,6.1C82.6,108.4,75.8,109.2,69.1,108.9z"/>
<path class="st51" d="M129,210c-4.5,1.9-8.1,4.4-8,10c-1.7-3.3-2.8-6.9-8-6.1c-2.8,0.4-6-0.7-5.1,4.1c0.3,1.6-0.9,1.4-1.9,1
	c0-10.4,0-20.7,0-30.5C113.6,195.6,121.3,202.8,129,210z"/>
<path class="st52" d="M241,27c0.7-1.1,1.9-1,3-1c3.6-0.6,5.6,0.8,5.9,4.5c0.4,5.3,1.9,10.4,3.8,15.4c1.9,4.8,2.9,9.8,2.8,15
	c-0.1,8.5,1.9,17.1-1.1,25.6c-0.1,1.6-0.5,3.1-1.3,4.5c-0.5,0.9-1.1,1.8-1.9,2.5c-2.2,1.3-4,1.3-4.8-1.6c0.9-6.9,0.9-13.8,2-20.6
	c0.8-5.2-0.8-10.7-1.3-16c-0.3-3.3-0.5-6.9-2-10.1C244.3,39.1,242.8,33,241,27z"/>
<path class="st53" d="M241,27c3.8,3.4,3.4,8.4,4.9,12.7c0.6,1.7,0.7,3.5,1.1,5.3c0.5,6.4,1.7,12.8,0.9,19.2
	c-0.2,1.5-0.5,2.9-1.9,3.8c-2.6-1.8-5.4-3-8.6-3.4c0.3-6.4-1-12.6-0.9-19c0.1-4.8-1.2-9.1-4.4-12.7C234.3,29.9,237.3,28,241,27z"/>
<path class="st54" d="M266,24.1c4.3,2.4,3.9,7.1,5.3,10.9c1.3,3.4,1.2,7.4,1.7,11.1c0.8,5.9,3.3,11.5,2.5,17.7
	c-2.8,2.3-4.9,0.9-6.3-1.5c-1-1.6-1.9-3.4-2.9-5c-2-8.3-5.5-16.1-6.4-24.7c-0.4-3.7-1.9-6.6-5.1-8.5C258.6,21.6,262.3,24.2,266,24.1
	z"/>
<path class="st55" d="M210,122c0-3.4,0-6.7-0.1-10.1c0.4-4-0.8-8.1,1-12c2.3,3,0.8,6.4,1.3,9.9c4.8-5.6,11-9.7,14.9-16.1
	c0.6-1,1.6-1.7,2.8-2c3,1,2.4,4.5,4.4,6.2c0,4.6-2.6,8.1-5.4,11.2c-3.3,3.5-6.1,7.3-8.4,11.4c-1.7,2.2-4.2,2.9-6.5,4
	C210.9,126,210.5,124.1,210,122z"/>
<path class="st56" d="M127,250c-0.8,0.2-1.5,0.8-2.3,0.1c-5.6-4.9-6-4.8-8.7,1.9c-0.9,0.4-1.7,0.1-2.2-0.6c-1.6-2.1-3.2-2.3-5.2-0.4
	c-0.7,0.7-1.7,0.9-2.6,0c0-7,0-14,0-21c1.9,0.7,1.7-5.7,5.1-1.4c1.1,1.3,4.7,0.1,5.5,3.5c0.5,2.2,3.9,2.3,4.3,4.9
	C123.2,241.2,127.3,244.6,127,250z"/>
<path class="st57" d="M69.1,108.9c5.1-0.7,9.9-3.1,15.3-2.9c1.5,0.1,3,0.1,4.2-1.1c5.5-5.1,13.2-5.5,19.6-6.3
	c9.3-1.2,19.2-0.6,28.8,0.9c2.6,0.4,4.9,0.5,6.1-2.5c1.4-0.8,2.7-1.3,3,1.1c-1.8,1.6-3.8,2.9-6.1,3.8c-3.5-0.2-5.9,2.8-9.2,3.1
	c-0.7,0-1.5,0-2.2,0c-13-1-26-1.3-38.3,4.3c-2.5,1.1-5.2,1-7.8,1.2c-1.5,0.1-3-0.4-4.4,0.4C74.9,110.8,72,109.7,69.1,108.9z"/>
<path class="st58" d="M254.9,24c3.9-0.7,5.3,1.8,5.9,5c0.8,4.5,1.6,9,2.2,13.6c0.4,3.2,3.1,5.3,3.4,8.6c0.1,1.9,0.7,3.8,0.7,5.8
	c1.6,2.6,1.8,5.4,0.8,8.3c-2.2,2.4-3.7,0-5.4-0.8c-1.6-0.7-3.1-1.7-4.3-3c-1.6-2.9-1.6-6.2-1.3-9.2c0.8-8.1-2.9-15.5-3.4-23.4
	c-0.1-1.6-1.1-3.2-0.3-4.8C253.6,24,254.3,24,254.9,24z"/>
<path class="st59" d="M232.1,33c6.4,0.7,5.5,6.7,5.5,9.9c0,7.4,2.6,14.7,0.4,22.1c1.2,4.2-0.4,7.9-2.4,11.6c-4.1,3.2-6,2.1-7-4.4
	c-0.1-3.5,1.3-6.8,2-10.2c1.8-8.5,0-16.8-1.8-25C229.8,35.5,230.4,33.8,232.1,33z"/>
<path class="st60" d="M253,24c1.2,4,4.1,7.8,2.1,12.3c5.5,7.6,1.2,16.7,3.9,24.6c0.4,0.5,0.9,1.2,0.8,1.8
	c-1.5,7.7-0.1,15.7-3.3,23.1c-0.2,0.5-0.6,0.8-1,1.1c-0.5,0.3-1,0.3-1.5,0c2.9-13.1,2.1-26.2-1.1-39c-1.6-6.3-4.5-12.2-4.3-19
	c0-2.3-2.7-2.6-4.6-3C246.8,24.4,249.8,23.9,253,24z"/>
<path class="st61" d="M228.9,36.9c3.7,4.1,3.2,9.4,3.9,14.2c0.9,7.1-1.8,13.9-2.7,20.8c-2.1,3.4-1.3,8.4-6,10.3
	c-3.1-2.3-1.6-6-2.7-8.9c4.2-7.5,3.1-15.7,3.3-23.8c0.1-2.7,0.1-5.3,1.3-7.8C226.3,39.8,227.1,38.1,228.9,36.9z"/>
<path class="st62" d="M225.9,41.8c0,7.4-0.1,14.9,0.1,22.3c0.1,4-3,6.5-4.1,9.9c-1.1,2.9-3.2,4.9-5.4,6.9c-0.7,0.6-1.5,1.7-2.5,1
	c-1.2-0.7-0.7-2-0.2-3C215.7,65.8,218.7,53.1,225.9,41.8z"/>
<path class="st63" d="M45,66c0.8,0.4,1,1.2,1,2c-0.1,3.2-2.4,2.2-4.2,2.3c-4.5,0.3-9-0.2-13.4,1.2c-1.8,0.5-3.9,0.2-5.4,1.6
	C19.8,67,19.4,60.6,21,54c0.5-0.7,1.2-1.6,1.9-0.8c4.4,5.1,10.6,5.8,16.7,7C42.2,61.4,43.2,64.1,45,66z"/>
<path class="st64" d="M40,61c-5.8,1.8-10.1-3.5-15.6-3.2C22.9,57.9,23,56.2,23,55c0-1.7-1-1.4-2-1c0.1-2.5,0.7-4.8,1.9-7
	c6.8,5.4,14.8,6.2,23.1,6c0.1,1.8,1.3,2,2.7,2c1.4,0,2.2,0.6,2.3,2C47.5,58.7,44.2,61.2,40,61z"/>
<path class="st65" d="M106.1,251c0.3-0.1,0.8,0,1-0.2c3.7-5.1,6.4-2.3,9,1.2c0.7,0.3,1.3,0.7,2,1c-0.7,5.1,4.3,6.9,6.4,10.8
	c-2.3,0.2-4.2,0.5-6.3-0.5c-1.6-0.8-0.7,1.1-1.1,1.8c-1.7,1.1-3,0.8-4.2-0.8c-2.8-3.6-4.4-3.2-4.9,1.4c-0.1,1-1,1.2-1.8,1.4
	C106.1,261.7,106.1,256.3,106.1,251z"/>
<path class="st66" d="M230,92c-4.5,8.3-13.1,13.1-19,22.3c0-5.5,0-10,0-14.4c0.3-2.7-0.7-5.5,1-8.1c1.6,1.2,0.9,3.2,1.4,4.8
	c0.3-0.8,0.7-1.5,1.5-1.9c1.8,0.4,3.3,0.9,4.9-1.1c2.6-3.1,6.1-4.4,10.2-2.9C230.3,91.2,230.3,91.6,230,92z"/>
<path class="st67" d="M146,98.1c-0.7-1.2-1.9-1-3-1.1c-3.3,2.6-6-0.6-8.6-1.4c-4.4-1.3-8.6-1.6-13-1.6c-2.3,0-4.5-0.5-6.4-2
	c0.6-1.9,2.6-2.2,3.8-3.4c1.4-0.7,3-0.8,4.5-0.7c0.2,0,0.4,0.1,0.7,0.1c6.3,2.7,12.8,3.9,19.7,4.1c3.1,0.1,6.2,0.6,9.4,1
	C151.2,95.4,148.6,96.7,146,98.1z"/>
<path class="st68" d="M58,86c1.8,2,3.5,0.6,5.3-0.1c2.5-1,4.9-1.9,6.7,1.1c-1.1,1.7-3.3,1.9-4.5,3.4c-0.5,0.5-1,0.8-1.6,1.1
	c-2.4,0.4-4.7,0.9-6.7,2.5c-4.1,2.3-8.2,4.7-13.3,3.2c-3.1-1.5-5.9-3.3-8-6.1c0.5-2.6,2.2-2,3.6-1.1c2.4,1.5,4.3,0.7,6.4-0.6
	C49.6,87,53.4,84.8,58,86z"/>
<path class="st69" d="M215,95c-0.5,1.1-1.1,2.3-1.7,3.5c-2.2-2.1-0.9-4.6-1.4-6.7c-0.1-4.4,0.5-8.8,2-13c0.6,0.4-0.9,2.9,1.3,1.6
	c2.7-1.6,3.9-4.9,6.8-6.4c3,2.1,0.1,5.7,2,8c1.3,1.6,0.1,2.8-0.8,3.9C220.6,89.1,218.4,92.5,215,95z"/>
<path class="st70" d="M58,86c-4.8,1.3-9.6,2.4-13.5,5.7c-1.5,1.3-3.4,1.4-4.9-0.2c-1.1-1.1-2.1-2.3-3.6-0.5c-1-1-2-2-3-3
	c-0.4-1.5,0.7-1.7,1.6-1.8c5.8-0.6,10.7-3.3,15.7-6c1.9-0.6,3.8-1.2,5.8-0.3c-1.4,4.1,3.9,1.4,4,4C59.3,84.7,58.7,85.3,58,86z"/>
<path class="st71" d="M64,91c0.3-0.3,0.7-0.7,1-1c2.3-0.4,4.6-0.4,6.2,1.7c0.4,1.5-0.5,2.3-1.5,3.2c-3,2.1-6.1,3.9-9.3,5.6
	c-2.8,1.4-5.5,2-8.5,1.7c-3-1-5.8-2.6-8-5c0.2-0.4,0.3-0.9,0.5-1.3c4.9,2.3,8.5-1.4,12.6-2.9C59.4,92.6,61.8,92,64,91z"/>
<path class="st72" d="M129,104c0.7,0,1.3,0,2,0c0.6,0.6,0.6,1.3,0,1.9c-17.1,7.1-34.8,8.3-52.9,4.9c1.1-1.3,2.6-0.7,3.9-0.9
	c11-1.2,21.8-3.3,32.9-3.3C119.8,106.6,124.2,104.6,129,104z"/>
<path class="st73" d="M51.9,102.2c6.3-1.5,11.9-4.4,17.1-8.2c3.9,1,7-2.1,10.8-2.1c1.8,0,3.6-0.9,4.5,1.4C84,95.8,82.2,97.1,80,98
	c-7.1,3.3-14.6,5.1-22.1,7.2C55.5,105.1,53.7,103.6,51.9,102.2z"/>
<path class="st27" d="M22.9,73.1c-0.1-5,3.4-1.3,5.1-2.1c3.1,1.5,6,3,9.9,1.9c2.4-0.7,5.3,0.3,6.6,3.2c-0.1,1.4-1,2.3-2,3.1
	c-4.4,3-9.6,2.4-14.6,2.9C25.2,79.7,24,76.4,22.9,73.1z"/>
<path class="st74" d="M27.9,82.1c2.3-1.7,5-2.2,7.8-2.1c2.5,0.1,4.5-0.6,6.3-2.1c2.5,1.3,5.8,0.9,8,3c-4.3,4.1-9.6,6-15.5,6.3
	c-0.7,0-1.3,0.2-1.6,0.8C30.9,86.4,28.6,84.9,27.9,82.1z"/>
<path class="st75" d="M57.9,105.1c6.7-4.6,14.9-4.9,22.1-8.1c0.6,0.7,0.6,1.3,0,2c-4.8,4.4-10.4,7.3-17,8
	C61.2,106.7,59.4,106.3,57.9,105.1z"/>
<path class="st76" d="M131,105.9c0-0.6,0-1.3,0-1.9c3.1-0.2,5.3-4.3,8.9-2.2C137.1,103.5,134.3,105.2,131,105.9z"/>
<path class="st77" d="M210,122c0.8,3.1,2.8,1.1,4.4,0.9c2.3-0.2,3.8-1.9,5.6-2.9c2.2-1.4,3.2,0.4,4.2,1.8c1.1,1.7,2.6,3.3,3.2,5.3
	c-0.6,2.3-1.5,4.1-4.4,2.9c-3.3,2.9-5.7,6.6-9.8,8.6c-2.5,1.2-3.2,1.1-3.2-1.7C210,132,210,127,210,122z"/>
<path class="st78" d="M223,130c2-0.1,3.1-1.4,4-3c0.1-3.4,2.1-5.2,5.1-6c2.8,0.2,5.4-1.9,8.3-0.7c0.9,4,0.1,7.5-2.4,10.8
	c-1.6,5.7-6,6.5-11,6C223.7,135.8,223.3,132.9,223,130z"/>
<path class="st79" d="M275,64c-1-6-2.6-11.9-2-18c2.7,5.8,6.1,11.4,6.5,18.1c0.1,1.2,1.6,0.8,2.5,0.9c0.2,6.6,3,12.6,4,19
	c-5.4,0.6-5.9,5-7,9c-2-0.5-2.2-0.6-1.8-2.1c0.7-2.4,0.6-4.2-2.2-4.9c-1.2-1.1-1.4-2.6-1.2-4.1c0.5-3.5-0.1-6.8-0.8-10.2
	C272.3,68.9,272.8,66.2,275,64z"/>
<path class="st80" d="M50,81c-2.9-0.5-6.2,0.4-8-3c1-0.4,1.6-1,2-2c4.4-2.4,8.8-4.5,14-4c4,0.1,8,2.5,12,0c1.7-0.1,3.2,0.2,4,2
	c-6.2,1.5-12.2,3.3-18,6C54.1,81.2,52.1,81,50,81z"/>
<path class="st70" d="M67,81c-0.7,1.8-2.5,2.2-4,3C61.3,78.9,65.5,81.8,67,81z"/>
<path class="st81" d="M58,72c-4.6,1.5-9.1,3.6-14,4c-2.8-1.9-5.5-2.8-9-1.3c-3.1,1.3-5.3-1.1-7-3.7c0.8-1.8,2.4-2.4,4-1.9
	c4.2,1.4,8.5-1.3,12.7,0.2c0.2,0.1,0.8-0.9,1.3-1.3c4.2,2.2,8.8-1.1,13,1C58.7,70,58.3,71,58,72z"/>
<path class="st82" d="M40,61c3.6-1.4,6.7-4.4,11-4c4-0.4,7.7-4,12-1c-2.6,4.3-2.4,4.6,3,5c-0.7,1.3-1.8,3.2-3.2,2.6
	c-5-2.2-9.6,2.1-14.5,0.6c-1.1-0.3-2.5,0.7-3.3,1.8C41.3,66.4,41.8,62.5,40,61z"/>
<path class="st83" d="M238,131c0.7-3.7,1.3-7.3,2-11c3.8-9.1,5.9-18.9,12-27c0-0.8,0.2-1.6,1-2c2.7,2,2.9,4.8,2.7,7.9
	c-0.2,3.1-1.2,6.7,2.6,8.8c3.4,5.1-1.2,7.8-3.3,11.3c-2-0.1-3.8-0.2-4.2,2.7c-0.3,1.9-1.8,3.2-3.9,3.9c-2.5,0.8-4.4,2.6-4.9,5.4
	C240.7,131,239.3,131,238,131z"/>
<path class="st84" d="M71,92c-1.7-1.5-4.4-0.2-6-2c0.6-2.8,3.2-2.3,5-3c6.5-0.9,12.1-4.9,18.6-5.6c11.2-1.3,22.1-5,33.4-5.4
	c3.7,3.3,9.1,1.2,13,4c-3.3,0.9-7.1-1-10,2c-1.3,0.9-2.9,0.8-4.3,0.8c-14.6,0.6-28.7,4-42.6,8.3C75.8,91.9,73.6,93.5,71,92z"/>
<path class="st44" d="M255,119c0.5-2,0.7-4.3,2.3-5.7c2.1-1.7,0.9-3.5,0.7-5.3c1-5.8,4.4-10.4,8.2-14.7c5.1,1.8,6.8,4.5,4.9,7.7
	c-2.2,4.4-0.2,8.9,0.4,13c0.6,3.6-0.9,4.9-2.7,6.7c-1.9,1.8-3.8,3.6-5.8,5.3c-1.2-0.1-2.6-0.3-2.4-1.8
	C261.4,119.4,258.5,119,255,119z"/>
<path class="st85" d="M271,101c0.7-4-2.3-5.4-5-7c-1.3-2.2-0.4-4.8-1.1-7.1c2.2-6.8,0.3-14.1,2.1-20.9c0-3,0-6,0-9
	c1.4,0.7,2.7,1.6,2.8,3.1c0.3,3.3,2.5,3.8,5.2,3.9c-2.2,7.3,1.9,14.7,0,22c-1.6,4.3-2.8,8.5-1,13.1C274.6,100.5,274.4,100.6,271,101
	z"/>
<path class="st86" d="M71,92c9.6-3.8,19.9-4.9,29.4-8.8c1.6-0.7,3.6-0.5,5.4,0.2c1.1,0.5,2.2,0.6,3.3-0.2c5.1-3.2,10.5-1.5,15.9-1.3
	c1.2,3.7,5.5,0,7,3c-3,0-5.5,1.6-8,3c0,0,0,0,0,0c-2.6,0.1-5.3-0.1-7.9,0.5c-9.6,1.9-19.3,3-28.9,5.2C86.1,94,84.9,93.9,84,93
	c-3.7-0.8-7.1,0.3-10.2,1.9C71.6,96,70.2,96.3,69,94C70,93.6,70.6,93,71,92z"/>
<path class="st87" d="M148,250c0.3,0.4,0.4,1,0.8,1.2c1.5,1.1,2.4,4,4.5,3.1c1.8-0.8-0.4-3.2,0.6-5.9c9.3,12.1,19.9,22.1,30,32.6
	c-2.5,0.3-4.1-3.7-5.6-1.4c-1.1,1.7,1.2,4.7,4,5.4c1.7,0.5,2.6,1.3,2.7,3c-1.6,1.1-3.2,0.9-4.5-0.5c-4.6-4.7-9.2-9.5-13.8-14.3
	c-0.8-0.8-1.8-1.6-1.3-3c0.9-2.7-1.1-3.4-3-4.2c-6.3-2.7-10.1-8.5-15.3-12.5C145.6,252.3,145.2,250.5,148,250z"/>
<path class="st88" d="M127,250c-1.6-4.5-5.7-7.9-6-13c3.3-0.9,2.7,3.5,5,3.8c9.1,1.1,12.2,8,15,15.2c-0.2,2.6,3.2,3.4,3,6
	c-1-0.2-2-0.8-2.8-0.6c-4.3,1.3-5.8,0.6-7.1-4.3C133.1,253.2,131,250.7,127,250z"/>
<path class="st89" d="M84,93c10.7-2,21.3-4,32-6c0.8,0.9,2.4,0.8,3,2c-0.2,2.6-2.7,1.9-4,3c-2.1,0.5-4.2,1.6-6.2,1.5
	C98.7,92.9,90,99.5,80,99c0-0.7,0-1.3,0-2C81.7,96,83,94.7,84,93z"/>
<path class="st90" d="M245,68c2.8-2.4,1.7-5.8,1.9-8.8c0.4-4.7-0.9-9.5,0.1-14.2c1,5.2,4.1,10.1,2.3,15.7c-0.1,0.3-0.2,0.7-0.1,1
	c4.4,8.6-1.3,17.1-0.2,25.6c0.2,1.7-0.1,3.3-1,4.8c-1.2,2.3-1.9,5.1-5.3,5.3c-2.5-1.1-4.3-2.7-4.5-5.6c0-1.3,0.3-2.6,0.8-3.9
	c1.7-5.3,4.4-10.4,4.4-16.2C243.4,70.3,243.9,68.9,245,68z"/>
<path class="st91" d="M243,97c2.3-1,2.5-4.2,5-5c0.8,2.4,2.6,1,4,1c-3.5,8.6-7,17.2-10.5,25.7c-0.2,0.5-1,0.8-1.5,1.3
	c-2.3,2.2-5.1,2.1-8,2c-0.7-3.1,0.5-5.9,1.8-8.4c2.6-4.8,5.1-9.6,6.8-14.9C240.9,97.6,241.5,96.6,243,97z"/>
<path class="st92" d="M266,87c0.9,2.3,0.9,4.7,0,7c-2,5-5.3,9.3-8,14c-7,0.4-3.7-5.6-3.6-7.6c0.1-3.4-0.5-6.3-1.4-9.4
	c0.7-1.2,1.2-2.5,1-4c0.3,0,0.7,0,1,0C258.7,85.6,262.3,84.5,266,87z"/>
<path class="st93" d="M245,68c0.3,8.6-3.4,16.2-6,24c-1.1,2.5-1.1,5.9-5,6c-3.7-0.4-2.1-4.4-4-6c0-0.3,0-0.7,0-1
	c-1.3-3.7,1-6.7,2.3-9.7c0.8-1.8,2.1-3.4,2.7-5.3c1-3.7,2-7.3,3-11C241.6,63,244.5,62.8,245,68z"/>
<path class="st94" d="M234,98c2.5-1.3,2.9-4.4,5-6c0.5,2.3,3,3.1,4,5c-1.7,3.8-3.1,7.7-5,11.3c-2.4,4.4-4.1,9.1-6,13.7
	c-2.7,0.6-3.3,3.4-5,5c-3.6-1-2.8-6.6-7-7c1.1-3.6,2.9-6.9,5.9-9.4C229.9,107.3,231.9,102.6,234,98z"/>
<path class="st76" d="M129,104c-2,3.3-6.1,3.1-8.7,3.5c-4.9,0.7-10.1,2.5-15.2,0.7c-2.5-0.8-4.5,0.9-6.7,1.3
	c-5.4,1-10.9,0.4-16.4,0.5c14.6-5.4,29.6-8.1,45.2-6.8C127.8,103.3,128.4,103.7,129,104z"/>
<path class="st95" d="M266,87c-3.7,0-7.3,0-11,0c1.1-5.1,3.4-9.9,2.1-15.4c-0.8-3.6,2.8-6.8,1.9-10.6c2.7,1.7,5.3,3.3,8,5
	c1.1,5.9,0.8,11.8-0.3,17.6C266.5,84.8,266.2,85.9,266,87z"/>
<path class="st96" d="M235,76c-0.1,5.5-4.2,9.7-5,15c-4.5,0.4-8.5,1.4-11.5,5.6c-1.6,2.3-1.9-1.9-3.5-1.6c1.1-3.9,4.9-6,6.9-9.3
	c0.7-1.2,2.2-2,2.1-3.7c3.1-2.7,2.7-7.5,6-10c-0.1,2.2,0,4.3,2.3,5.5C233.8,78.2,234,76.4,235,76z"/>
<path class="st37" d="M119,89c-1.4,0-2.4-0.7-3-2c2.7,0.2,5.5-0.5,8,1C122.6,89.7,120.7,88.8,119,89z"/>
<path class="st84" d="M64,91c-1.8,2.4-4.1,3.3-7,2C59,91.2,61.2,90.1,64,91z"/>
</svg>
